<?xml version="1.0" encoding="UTF-8"?><svg version="1.1" id="Layer_1" xmlns="http://www.w3.org/2000/svg" xmlns:xlink="http://www.w3.org/1999/xlink" x="0px" y="0px" width="200px" height="242px" viewBox="0 0 200 242" enable-background="new 0 0 200 242" xml:space="preserve">
<g>
	<path fill="#151A4F" d="M25.958,139.254L15.91,129.209l10.049-10.043l10.05,10.043L25.958,139.254z M19.601,129.209l6.357,6.353
		l6.357-6.353l-6.357-6.353L19.601,129.209z"/>
</g>
<rect x="71.543" y="86.381" fill="#D9E021" width="16.581" height="18.829"/>
<rect x="125.052" y="64.539" fill="#1D72D8" width="9.797" height="48.958"/>
<rect x="36.874" y="86.381" fill="#E94A47" width="30.901" height="18.829"/>
<rect x="40.355" y="88.12" fill="#D62929" width="5.377" height="18.829"/>
<rect x="48.476" y="88.12" fill="#D62929" width="5.377" height="18.829"/>
<rect x="56.597" y="88.12" fill="#D62929" width="5.377" height="18.829"/>
<rect x="72.694" y="88.12" fill="#8CC63F" width="4.024" height="18.829"/>
<rect x="78.228" y="88.12" fill="#8CC63F" width="4.024" height="18.829"/>
<rect x="83.762" y="88.12" fill="#8CC63F" width="4.024" height="18.829"/>
<rect x="64.718" y="88.12" fill="#D62929" width="3.057" height="18.829"/>
<linearGradient id="SVGID_1_" gradientUnits="userSpaceOnUse" x1="486.22" y1="1170.7911" x2="841.8575" y2="1170.7911" gradientTransform="matrix(0.4 0 0 0.4 -169.4 -297.4)">
	<stop offset="0" style="stop-color:#428DFC"/>
	<stop offset="1" style="stop-color:#1D72D8"/>
</linearGradient>
<rect x="25.088" y="99.833" fill="url(#SVGID_1_)" width="142.255" height="142.167"/>
<rect x="102.443" y="60.02" fill="#428DFC" width="55.771" height="33.141"/>
<rect x="106.964" y="64.498" fill="#151A4F" width="46.727" height="24.184"/>
<rect x="25.088" y="99.833" fill="#23286B" width="142.255" height="25.705"/>
<g>
	<path fill="#428DFC" d="M164.362,53.177c-0.068,0-0.138-0.016-0.201-0.051c-0.213-0.112-0.295-0.375-0.185-0.587
		c6.136-11.704,20.056-16.574,31.039-17.228c0.242-0.001,0.446,0.17,0.459,0.409c0.015,0.239-0.168,0.446-0.409,0.461
		c-10.743,0.641-24.352,5.381-30.318,16.764C164.67,53.092,164.519,53.177,164.362,53.177z"/>
</g>
<g>
	<path fill="#428DFC" d="M146.902,28.774c-0.016,0-0.031-0.001-0.048-0.003c-0.239-0.027-0.412-0.242-0.384-0.481
		c1.128-10.039-0.13-19.093-3.843-27.683c-0.096-0.22,0.007-0.477,0.227-0.571c0.221-0.097,0.477,0.005,0.571,0.227
		c3.724,8.611,5.039,18.074,3.909,28.125C147.31,28.61,147.121,28.774,146.902,28.774z"/>
</g>
<path fill="none" stroke="#428DFC" stroke-width="0.6364" stroke-miterlimit="10" d="M197.558,77.403"/>
<g>
	<path fill="#428DFC" d="M196.344,77.998c-0.071,0-0.142-0.018-0.209-0.055c-4.518-2.485-9.816-3.441-14.919-2.686
		c-0.245,0.033-0.459-0.13-0.494-0.368c-0.036-0.238,0.129-0.458,0.366-0.494c5.287-0.783,10.781,0.208,15.467,2.784
		c0.211,0.116,0.287,0.38,0.171,0.591C196.647,77.918,196.497,77.998,196.344,77.998z"/>
</g>
<g>
	<polygon fill="#D6D7D8" points="79.148,121.317 79.148,121.317 79.136,128.847 79.16,128.847 	"/>
	<polygon fill="#D6D7D8" points="79.148,121.302 79.148,121.317 79.148,121.317 	"/>
	<polygon fill="#151A4F" points="79.162,121.302 86.62,113.825 86.62,113.803 79.148,113.803 79.148,121.302 	"/>
	<path fill="#D6D7D8" d="M79.148,121.317L79.148,121.317L79.148,121.317z"/>
	<polygon fill="#A1C3FC" points="86.62,121.302 86.62,113.849 79.162,121.302 	"/>
	<polygon fill="#D6D7D8" points="79.162,121.302 86.62,113.849 86.62,113.825 	"/>
	<path fill="#D6D7D8" d="M79.148,121.317L79.148,121.317L79.148,121.317z"/>
	<polygon fill="#D6D7D8" points="79.162,121.302 79.148,121.302 79.155,121.31 	"/>
	<polygon fill="#D6D7D8" points="79.162,121.302 79.155,121.31 79.162,121.317 86.62,121.305 86.62,121.302 	"/>
	<rect x="79.159" y="121.301" fill="#D6D7D8" width="0" height="0.011"/>
	<polygon fill="#D6D7D8" points="79.148,121.302 79.148,121.317 79.155,121.31 	"/>
	<polygon fill="#D6D7D8" points="79.148,121.317 79.148,121.317 79.162,121.317 79.155,121.31 	"/>
	<rect x="79.151" y="121.309" fill="#D6D7D8" width="0" height="0.011"/>
	<polygon fill="#D6D7D8" points="79.162,121.317 86.62,128.77 86.62,128.745 	"/>
	<path fill="#D6D7D8" d="M79.155,121.31l-0.007-0.008L79.155,121.31z"/>
	<rect x="79.159" y="121.309" fill="#D6D7D8" width="0" height="0.011"/>
	<path fill="#D6D7D8" d="M79.155,121.31L79.155,121.31L79.155,121.31z"/>
	<polygon fill="#A1C3FC" points="79.148,121.302 79.148,113.803 71.653,113.803 79.133,121.302 	"/>
	<polygon fill="#D6D7D8" points="79.148,121.317 79.148,121.317 79.148,121.302 	"/>
	<path fill="#D6D7D8" d="M79.148,121.317L79.148,121.317L79.148,121.317z"/>
	<polygon fill="#151A4F" points="71.629,113.803 71.566,113.803 71.566,121.302 79.133,121.302 	"/>
	<polygon fill="#D6D7D8" points="79.133,121.302 71.653,113.803 71.629,113.803 	"/>
	<path fill="#D6D7D8" d="M79.148,121.317L79.148,121.317L79.148,121.317z"/>
	<polygon fill="#D6D7D8" points="79.14,121.31 79.148,121.302 79.133,121.302 	"/>
	<polygon fill="#D6D7D8" points="79.14,121.31 79.133,121.302 71.566,121.302 71.566,121.305 79.133,121.317 	"/>
	<rect x="79.137" y="121.301" fill="#D6D7D8" width="0" height="0.011"/>
	<polygon fill="#D6D7D8" points="79.148,121.317 79.148,121.302 79.14,121.31 	"/>
	<polygon fill="#D6D7D8" points="79.14,121.31 79.133,121.317 79.148,121.317 79.148,121.317 	"/>
	<polygon fill="#D6D7D8" points="79.147,121.319 79.139,121.311 79.139,121.311 	"/>
	<polygon fill="#D6D7D8" points="71.574,128.847 71.599,128.847 79.133,121.317 79.133,121.317 	"/>
	<path fill="#D6D7D8" d="M79.14,121.31l0.008-0.008L79.14,121.31z"/>
	<polygon fill="#D6D7D8" points="79.131,121.316 79.139,121.309 79.139,121.309 	"/>
	<path fill="#D6D7D8" d="M79.14,121.31L79.14,121.31L79.14,121.31z"/>
	<polygon fill="#151A4F" points="86.62,128.708 86.62,121.268 79.162,121.28 	"/>
	<polygon fill="#A1C3FC" points="86.62,128.733 79.162,121.28 79.148,121.28 79.16,128.811 86.62,128.811 	"/>
	<polygon fill="#A1C3FC" points="71.566,121.268 71.566,128.811 71.574,128.811 79.133,121.28 	"/>
	<polygon fill="#151A4F" points="79.133,121.28 71.599,128.811 79.136,128.811 79.148,121.28 	"/>
</g>
<g>
	<polygon fill="#D6D7D8" points="55.003,121.317 55.003,121.317 54.99,128.847 55.015,128.847 	"/>
	<polygon fill="#D6D7D8" points="55.003,121.302 55.003,121.317 55.003,121.317 	"/>
	<polygon fill="#151A4F" points="55.016,121.302 62.474,113.825 62.474,113.803 55.003,113.803 55.003,121.302 	"/>
	<path fill="#D6D7D8" d="M55.003,121.317L55.003,121.317L55.003,121.317z"/>
	<polygon fill="#A1C3FC" points="62.474,121.302 62.474,113.849 55.016,121.302 	"/>
	<polygon fill="#D6D7D8" points="55.016,121.302 62.474,113.849 62.474,113.825 	"/>
	<path fill="#D6D7D8" d="M55.003,121.317L55.003,121.317L55.003,121.317z"/>
	<polygon fill="#D6D7D8" points="55.016,121.302 55.003,121.302 55.009,121.31 	"/>
	<polygon fill="#D6D7D8" points="55.016,121.302 55.009,121.31 55.016,121.317 62.474,121.305 62.474,121.302 	"/>
	<rect x="55.013" y="121.301" fill="#D6D7D8" width="0" height="0.011"/>
	<polygon fill="#D6D7D8" points="55.003,121.302 55.003,121.317 55.009,121.31 	"/>
	<polygon fill="#D6D7D8" points="55.003,121.317 55.003,121.317 55.016,121.317 55.009,121.31 	"/>
	<rect x="55.005" y="121.309" fill="#D6D7D8" width="0" height="0.011"/>
	<polygon fill="#D6D7D8" points="55.016,121.317 62.474,128.77 62.474,128.745 	"/>
	<path fill="#D6D7D8" d="M55.009,121.31l-0.007-0.008L55.009,121.31z"/>
	<rect x="55.013" y="121.309" fill="#D6D7D8" width="0" height="0.011"/>
	<path fill="#D6D7D8" d="M55.009,121.31L55.009,121.31L55.009,121.31z"/>
	<polygon fill="#A1C3FC" points="55.003,121.302 55.003,113.803 47.508,113.803 54.987,121.302 	"/>
	<polygon fill="#D6D7D8" points="55.003,121.317 55.003,121.317 55.003,121.302 	"/>
	<path fill="#D6D7D8" d="M55.003,121.317L55.003,121.317L55.003,121.317z"/>
	<polygon fill="#151A4F" points="47.483,113.803 47.42,113.803 47.42,121.302 54.987,121.302 	"/>
	<polygon fill="#D6D7D8" points="54.987,121.302 47.508,113.803 47.483,113.803 	"/>
	<path fill="#D6D7D8" d="M55.003,121.317L55.003,121.317L55.003,121.317z"/>
	<polygon fill="#D6D7D8" points="54.994,121.31 55.003,121.302 54.987,121.302 	"/>
	<polygon fill="#D6D7D8" points="54.994,121.31 54.987,121.302 47.42,121.302 47.42,121.305 54.987,121.317 	"/>
	<rect x="54.992" y="121.301" fill="#D6D7D8" width="0" height="0.011"/>
	<polygon fill="#D6D7D8" points="55.003,121.317 55.003,121.302 54.994,121.31 	"/>
	<polygon fill="#D6D7D8" points="54.994,121.31 54.987,121.317 55.003,121.317 55.003,121.317 	"/>
	<polygon fill="#D6D7D8" points="55.002,121.319 54.994,121.311 54.994,121.311 	"/>
	<polygon fill="#D6D7D8" points="47.428,128.847 47.453,128.847 54.987,121.317 54.987,121.317 	"/>
	<path fill="#D6D7D8" d="M54.994,121.31l0.008-0.008L54.994,121.31z"/>
	<polygon fill="#D6D7D8" points="54.986,121.316 54.994,121.309 54.994,121.309 	"/>
	<path fill="#D6D7D8" d="M54.994,121.31L54.994,121.31L54.994,121.31z"/>
	<polygon fill="#151A4F" points="62.474,128.708 62.474,121.268 55.016,121.28 	"/>
	<polygon fill="#A1C3FC" points="62.474,128.733 55.016,121.28 55.003,121.28 55.015,128.811 62.474,128.811 	"/>
	<polygon fill="#A1C3FC" points="47.42,121.268 47.42,128.811 47.428,128.811 54.987,121.28 	"/>
	<polygon fill="#151A4F" points="54.987,121.28 47.453,128.811 54.99,128.811 55.003,121.28 	"/>
</g>
<g>
	<path fill="#FFFFFF" d="M152.989,140.369c-3.697,0-5.562-1.369-7.366-2.694c-1.768-1.296-3.438-2.523-6.85-2.523
		s-5.082,1.225-6.85,2.525c-1.803,1.324-3.669,2.693-7.365,2.693c-3.695,0-5.56-1.369-7.365-2.693
		c-1.768-1.298-3.438-2.525-6.85-2.525c-3.41,0-5.079,1.225-6.847,2.525c-1.802,1.324-3.667,2.693-7.361,2.693
		c-3.695,0-5.56-1.369-7.364-2.693c-1.768-1.298-3.438-2.525-6.848-2.525c-3.41,0-5.079,1.225-6.847,2.525
		c-1.803,1.324-3.668,2.693-7.364,2.693c-3.695,0-5.559-1.369-7.362-2.693c-1.768-1.298-3.437-2.525-6.847-2.525
		s-5.079,1.225-6.847,2.525c-1.803,1.324-3.667,2.693-7.362,2.693s-5.559-1.369-7.362-2.693c-1.768-1.298-3.438-2.525-6.848-2.525
		v-0.87c3.695,0,5.56,1.369,7.364,2.693c1.768,1.298,3.437,2.525,6.847,2.525s5.079-1.225,6.847-2.525
		c1.803-1.324,3.667-2.693,7.362-2.693s5.559,1.369,7.362,2.693c1.768,1.298,3.437,2.525,6.847,2.525s5.08-1.225,6.848-2.525
		c1.803-1.324,3.668-2.693,7.362-2.693c3.695,0,5.56,1.369,7.364,2.693c1.768,1.298,3.438,2.525,6.848,2.525
		c3.41,0,5.078-1.225,6.845-2.525c1.802-1.324,3.668-2.693,7.362-2.693c3.695,0,5.56,1.369,7.365,2.693
		c1.768,1.298,3.438,2.525,6.85,2.525s5.082-1.225,6.85-2.525c1.803-1.324,3.669-2.693,7.365-2.693c3.695,0,5.56,1.369,7.365,2.693
		c1.768,1.298,3.44,2.525,6.851,2.525s5.083-1.225,6.851-2.525c1.803-1.324,3.669-2.693,7.365-2.693v0.87
		c-3.411,0-5.082,1.225-6.85,2.523C158.552,139,156.686,140.369,152.989,140.369z"/>
</g>
<g>
	<path fill="#FFFFFF" d="M152.989,216.891c-3.697,0-5.562-1.369-7.366-2.694c-1.768-1.296-3.438-2.523-6.85-2.523
		s-5.082,1.225-6.85,2.525c-1.803,1.324-3.669,2.693-7.365,2.693c-3.695,0-5.56-1.369-7.365-2.693
		c-1.768-1.298-3.438-2.525-6.85-2.525c-3.41,0-5.079,1.225-6.847,2.525c-1.802,1.324-3.667,2.693-7.361,2.693
		c-3.695,0-5.56-1.369-7.364-2.693c-1.768-1.298-3.438-2.525-6.848-2.525c-3.41,0-5.079,1.225-6.847,2.525
		c-1.803,1.324-3.668,2.693-7.364,2.693c-3.695,0-5.559-1.369-7.362-2.693c-1.768-1.298-3.437-2.525-6.847-2.525
		s-5.079,1.225-6.847,2.525c-1.803,1.324-3.667,2.693-7.362,2.693s-5.559-1.369-7.362-2.693c-1.768-1.298-3.438-2.525-6.848-2.525
		v-0.87c3.695,0,5.56,1.369,7.364,2.693c1.768,1.298,3.437,2.525,6.847,2.525s5.079-1.225,6.847-2.525
		c1.803-1.324,3.667-2.693,7.362-2.693s5.559,1.369,7.362,2.693c1.768,1.298,3.437,2.525,6.847,2.525s5.08-1.225,6.848-2.525
		c1.803-1.324,3.668-2.693,7.362-2.693c3.695,0,5.56,1.369,7.364,2.693c1.768,1.298,3.438,2.525,6.848,2.525
		c3.41,0,5.078-1.225,6.845-2.525c1.802-1.324,3.668-2.693,7.362-2.693c3.695,0,5.56,1.369,7.365,2.693
		c1.768,1.298,3.438,2.525,6.85,2.525s5.082-1.225,6.85-2.525c1.803-1.324,3.669-2.693,7.365-2.693c3.695,0,5.56,1.369,7.365,2.693
		c1.768,1.298,3.44,2.525,6.851,2.525s5.083-1.225,6.851-2.525c1.803-1.324,3.669-2.693,7.365-2.693v0.87
		c-3.411,0-5.082,1.225-6.85,2.523C158.552,215.522,156.686,216.891,152.989,216.891z"/>
</g>
<g>
	<path fill="#FFFFFF" d="M152.989,229.645c-3.697,0-5.562-1.369-7.366-2.694c-1.768-1.296-3.438-2.523-6.85-2.523
		s-5.082,1.225-6.85,2.525c-1.803,1.324-3.669,2.693-7.365,2.693c-3.695,0-5.56-1.369-7.365-2.693
		c-1.768-1.298-3.438-2.525-6.85-2.525c-3.41,0-5.079,1.225-6.847,2.525c-1.802,1.324-3.667,2.693-7.361,2.693
		c-3.695,0-5.56-1.369-7.364-2.693c-1.768-1.298-3.438-2.525-6.848-2.525c-3.41,0-5.079,1.225-6.847,2.525
		c-1.803,1.324-3.668,2.693-7.364,2.693c-3.695,0-5.559-1.369-7.362-2.693c-1.768-1.298-3.437-2.525-6.847-2.525
		s-5.079,1.225-6.847,2.525c-1.803,1.324-3.667,2.693-7.362,2.693s-5.559-1.369-7.362-2.693c-1.768-1.298-3.438-2.525-6.848-2.525
		v-0.87c3.695,0,5.56,1.369,7.364,2.693c1.768,1.298,3.437,2.525,6.847,2.525s5.079-1.225,6.847-2.525
		c1.803-1.324,3.667-2.693,7.362-2.693s5.559,1.369,7.362,2.693c1.768,1.298,3.437,2.525,6.847,2.525s5.08-1.225,6.848-2.525
		c1.803-1.324,3.668-2.693,7.362-2.693c3.695,0,5.56,1.369,7.364,2.693c1.768,1.298,3.438,2.525,6.848,2.525
		c3.41,0,5.078-1.225,6.845-2.525c1.802-1.324,3.668-2.693,7.362-2.693c3.695,0,5.56,1.369,7.365,2.693
		c1.768,1.298,3.438,2.525,6.85,2.525s5.082-1.225,6.85-2.525c1.803-1.324,3.669-2.693,7.365-2.693c3.695,0,5.56,1.369,7.365,2.693
		c1.768,1.298,3.44,2.525,6.851,2.525s5.083-1.225,6.851-2.525c1.803-1.324,3.669-2.693,7.365-2.693v0.87
		c-3.411,0-5.082,1.225-6.85,2.523C158.552,228.275,156.686,229.645,152.989,229.645z"/>
</g>
<g>
	<path fill="#FFFFFF" d="M152.989,153.122c-3.697,0-5.562-1.369-7.366-2.694c-1.768-1.296-3.438-2.523-6.85-2.523
		s-5.082,1.225-6.85,2.525c-1.803,1.324-3.669,2.693-7.365,2.693c-3.695,0-5.56-1.369-7.365-2.693
		c-1.768-1.298-3.438-2.525-6.85-2.525c-3.41,0-5.079,1.225-6.847,2.525c-1.802,1.324-3.667,2.693-7.361,2.693
		c-3.695,0-5.56-1.369-7.364-2.693c-1.768-1.298-3.438-2.525-6.848-2.525c-3.41,0-5.079,1.225-6.847,2.525
		c-1.803,1.324-3.668,2.693-7.364,2.693c-3.695,0-5.559-1.369-7.362-2.693c-1.768-1.298-3.437-2.525-6.847-2.525
		s-5.079,1.225-6.847,2.525c-1.803,1.324-3.667,2.693-7.362,2.693s-5.559-1.369-7.362-2.693c-1.768-1.298-3.438-2.525-6.848-2.525
		v-0.87c3.695,0,5.56,1.369,7.364,2.693c1.768,1.298,3.437,2.525,6.847,2.525s5.079-1.225,6.847-2.525
		c1.803-1.324,3.667-2.693,7.362-2.693s5.559,1.369,7.362,2.693c1.768,1.298,3.437,2.525,6.847,2.525s5.08-1.225,6.848-2.525
		c1.803-1.324,3.668-2.693,7.362-2.693c3.695,0,5.56,1.369,7.364,2.693c1.768,1.298,3.438,2.525,6.848,2.525
		c3.41,0,5.078-1.225,6.845-2.525c1.802-1.324,3.668-2.693,7.362-2.693c3.695,0,5.56,1.369,7.365,2.693
		c1.768,1.298,3.438,2.525,6.85,2.525s5.082-1.225,6.85-2.525c1.803-1.324,3.669-2.693,7.365-2.693c3.695,0,5.56,1.369,7.365,2.693
		c1.768,1.298,3.44,2.525,6.851,2.525s5.083-1.225,6.851-2.525c1.803-1.324,3.669-2.693,7.365-2.693v0.87
		c-3.411,0-5.082,1.225-6.85,2.523C158.552,151.753,156.686,153.122,152.989,153.122z"/>
</g>
<g>
	<path fill="#FFFFFF" d="M152.989,165.876c-3.697,0-5.562-1.369-7.366-2.694c-1.768-1.298-3.438-2.525-6.85-2.525
		s-5.082,1.225-6.85,2.525c-1.803,1.325-3.669,2.694-7.365,2.694c-3.695,0-5.56-1.369-7.365-2.694
		c-1.768-1.298-3.438-2.525-6.85-2.525c-3.41,0-5.079,1.225-6.847,2.525c-1.802,1.325-3.667,2.694-7.361,2.694
		c-3.695,0-5.56-1.369-7.364-2.694c-1.768-1.298-3.438-2.525-6.848-2.525c-3.41,0-5.079,1.225-6.847,2.525
		c-1.803,1.325-3.668,2.694-7.364,2.694c-3.695,0-5.559-1.369-7.362-2.694c-1.768-1.298-3.437-2.525-6.847-2.525
		s-5.079,1.225-6.847,2.525c-1.803,1.325-3.667,2.694-7.362,2.694s-5.559-1.369-7.362-2.694c-1.768-1.298-3.438-2.525-6.848-2.525
		v-0.87c3.695,0,5.56,1.369,7.364,2.694c1.768,1.298,3.437,2.525,6.847,2.525s5.079-1.225,6.847-2.525
		c1.803-1.325,3.667-2.694,7.362-2.694s5.559,1.369,7.362,2.694c1.768,1.298,3.437,2.525,6.847,2.525s5.08-1.225,6.848-2.525
		c1.803-1.325,3.668-2.694,7.362-2.694c3.695,0,5.56,1.369,7.364,2.694c1.768,1.298,3.438,2.525,6.848,2.525
		c3.41,0,5.078-1.225,6.845-2.525c1.802-1.325,3.668-2.694,7.362-2.694c3.695,0,5.56,1.369,7.365,2.694
		c1.768,1.298,3.438,2.525,6.85,2.525s5.082-1.225,6.85-2.525c1.803-1.325,3.669-2.694,7.365-2.694c3.695,0,5.56,1.369,7.365,2.694
		c1.769,1.298,3.44,2.525,6.851,2.525s5.082-1.225,6.851-2.525c1.803-1.325,3.669-2.694,7.365-2.694v0.87
		c-3.411,0-5.082,1.225-6.85,2.525C158.552,164.508,156.686,165.876,152.989,165.876z"/>
</g>
<g>
	<path fill="#FFFFFF" d="M152.989,178.63c-3.697,0-5.562-1.369-7.366-2.694c-1.768-1.296-3.438-2.523-6.85-2.523
		s-5.082,1.225-6.85,2.525c-1.803,1.324-3.669,2.693-7.365,2.693c-3.695,0-5.56-1.369-7.365-2.693
		c-1.768-1.298-3.438-2.525-6.85-2.525c-3.41,0-5.079,1.225-6.847,2.525c-1.802,1.324-3.667,2.693-7.361,2.693
		c-3.695,0-5.56-1.369-7.364-2.693c-1.768-1.298-3.438-2.525-6.848-2.525c-3.41,0-5.079,1.225-6.847,2.525
		c-1.803,1.324-3.668,2.693-7.364,2.693c-3.695,0-5.559-1.369-7.362-2.693c-1.768-1.298-3.437-2.525-6.847-2.525
		s-5.079,1.225-6.847,2.525c-1.803,1.324-3.667,2.693-7.362,2.693s-5.559-1.369-7.362-2.693c-1.768-1.298-3.438-2.525-6.848-2.525
		v-0.87c3.695,0,5.56,1.369,7.364,2.693c1.768,1.298,3.437,2.525,6.847,2.525s5.079-1.225,6.847-2.525
		c1.803-1.324,3.667-2.693,7.362-2.693s5.559,1.369,7.362,2.693c1.768,1.298,3.437,2.525,6.847,2.525s5.08-1.225,6.848-2.525
		c1.803-1.324,3.668-2.693,7.362-2.693c3.695,0,5.56,1.369,7.364,2.693c1.768,1.298,3.438,2.525,6.848,2.525
		c3.41,0,5.078-1.225,6.845-2.525c1.802-1.324,3.668-2.693,7.362-2.693c3.695,0,5.56,1.369,7.365,2.693
		c1.768,1.298,3.438,2.525,6.85,2.525s5.082-1.225,6.85-2.525c1.803-1.324,3.669-2.693,7.365-2.693c3.695,0,5.56,1.369,7.365,2.693
		c1.768,1.298,3.44,2.525,6.851,2.525s5.083-1.225,6.851-2.525c1.803-1.324,3.669-2.693,7.365-2.693v0.87
		c-3.411,0-5.082,1.225-6.85,2.523C158.552,177.261,156.686,178.63,152.989,178.63z"/>
</g>
<g>
	<path fill="#FFFFFF" d="M152.989,191.383c-3.697,0-5.562-1.369-7.366-2.694c-1.768-1.296-3.438-2.523-6.85-2.523
		s-5.082,1.225-6.85,2.525c-1.803,1.324-3.669,2.693-7.365,2.693c-3.695,0-5.56-1.369-7.365-2.693
		c-1.768-1.298-3.438-2.525-6.85-2.525c-3.41,0-5.079,1.225-6.847,2.525c-1.802,1.324-3.667,2.693-7.361,2.693
		c-3.695,0-5.56-1.369-7.364-2.693c-1.768-1.298-3.438-2.525-6.848-2.525c-3.41,0-5.079,1.225-6.847,2.525
		c-1.803,1.324-3.668,2.693-7.364,2.693c-3.695,0-5.559-1.369-7.362-2.693c-1.768-1.298-3.437-2.525-6.847-2.525
		s-5.079,1.225-6.847,2.525c-1.803,1.324-3.667,2.693-7.362,2.693s-5.559-1.369-7.362-2.693c-1.768-1.298-3.438-2.525-6.848-2.525
		v-0.87c3.695,0,5.56,1.369,7.364,2.693c1.768,1.298,3.437,2.525,6.847,2.525s5.079-1.225,6.847-2.525
		c1.803-1.324,3.667-2.693,7.362-2.693s5.559,1.369,7.362,2.693c1.768,1.298,3.437,2.525,6.847,2.525s5.08-1.225,6.848-2.525
		c1.803-1.324,3.668-2.693,7.362-2.693c3.695,0,5.56,1.369,7.364,2.693c1.768,1.298,3.438,2.525,6.848,2.525
		c3.41,0,5.078-1.225,6.845-2.525c1.802-1.324,3.668-2.693,7.362-2.693c3.695,0,5.56,1.369,7.365,2.693
		c1.768,1.298,3.438,2.525,6.85,2.525s5.082-1.225,6.85-2.525c1.803-1.324,3.669-2.693,7.365-2.693c3.695,0,5.56,1.369,7.365,2.693
		c1.768,1.298,3.44,2.525,6.851,2.525s5.083-1.225,6.851-2.525c1.803-1.324,3.669-2.693,7.365-2.693v0.87
		c-3.411,0-5.082,1.225-6.85,2.523C158.552,190.014,156.686,191.383,152.989,191.383z"/>
</g>
<g>
	<path fill="#FFFFFF" d="M152.989,204.136c-3.697,0-5.562-1.369-7.366-2.694c-1.768-1.296-3.438-2.523-6.85-2.523
		s-5.082,1.225-6.85,2.525c-1.803,1.324-3.669,2.693-7.365,2.693c-3.695,0-5.56-1.369-7.365-2.693
		c-1.768-1.298-3.438-2.525-6.85-2.525c-3.41,0-5.079,1.225-6.847,2.525c-1.802,1.324-3.667,2.693-7.361,2.693
		c-3.695,0-5.56-1.369-7.364-2.693c-1.768-1.298-3.438-2.525-6.848-2.525c-3.41,0-5.079,1.225-6.847,2.525
		c-1.803,1.324-3.668,2.693-7.364,2.693c-3.695,0-5.559-1.369-7.362-2.693c-1.768-1.298-3.437-2.525-6.847-2.525
		s-5.079,1.225-6.847,2.525c-1.803,1.324-3.667,2.693-7.362,2.693s-5.559-1.369-7.362-2.693c-1.768-1.298-3.438-2.525-6.848-2.525
		v-0.87c3.695,0,5.56,1.369,7.364,2.693c1.768,1.298,3.437,2.525,6.847,2.525s5.079-1.225,6.847-2.525
		c1.803-1.324,3.667-2.693,7.362-2.693s5.559,1.369,7.362,2.693c1.768,1.298,3.437,2.525,6.847,2.525s5.08-1.225,6.848-2.525
		c1.803-1.324,3.668-2.693,7.362-2.693c3.695,0,5.56,1.369,7.364,2.693c1.768,1.298,3.438,2.525,6.848,2.525
		c3.41,0,5.078-1.225,6.845-2.525c1.802-1.324,3.668-2.693,7.362-2.693c3.695,0,5.56,1.369,7.365,2.693
		c1.768,1.298,3.438,2.525,6.85,2.525s5.082-1.225,6.85-2.525c1.803-1.324,3.669-2.693,7.365-2.693c3.695,0,5.56,1.369,7.365,2.693
		c1.768,1.298,3.44,2.525,6.851,2.525s5.083-1.225,6.851-2.525c1.803-1.324,3.669-2.693,7.365-2.693v0.87
		c-3.411,0-5.082,1.225-6.85,2.523C158.552,202.767,156.686,204.136,152.989,204.136z"/>
</g>
<g>
	<path fill="#151A4F" d="M97.66,226.739c-19.18,0-34.783-15.595-34.783-34.762s15.603-34.762,34.783-34.762
		c19.179,0,34.783,15.595,34.783,34.762S116.839,226.739,97.66,226.739z"/>
	<path fill="#E94A47" d="M97.661,161.127c17.049,0,30.868,13.812,30.868,30.849s-13.821,30.849-30.868,30.849
		s-30.868-13.812-30.868-30.849S80.612,161.127,97.661,161.127 M97.661,153.302c-21.339,0-38.699,17.349-38.699,38.675
		s17.36,38.675,38.699,38.675s38.699-17.349,38.699-38.675S119,153.302,97.661,153.302L97.661,153.302z"/>
</g>
<rect x="78.664" y="174.349" fill="#888BAF" width="12.89" height="12.882"/>
<rect x="84.202" y="182.574" transform="matrix(0.2966 0.955 -0.955 0.2966 240.5292 46.9655)" fill="#FFFFFF" width="8.363" height="8.367"/>
<path fill="#A1C3FC" d="M97.661,155.388c20.22,0,36.611,16.381,36.611,36.588s-16.392,36.588-36.611,36.588
	S61.05,212.182,61.05,191.976C61.048,171.769,77.44,155.388,97.661,155.388 M97.661,144.953c-25.945,0-47.052,21.095-47.052,47.023
	s21.108,47.023,47.052,47.023s47.052-21.095,47.052-47.023S123.606,144.953,97.661,144.953L97.661,144.953z"/>
<g>
	<path fill="#FFFFFF" d="M65.234,131.383h-19.31v-19.299h19.31V131.383z M48.534,128.774h14.09v-14.08h-14.09V128.774z"/>
</g>
<g>
	<path fill="#FFFFFF" d="M88.46,131.383H69.15v-19.299h19.31V131.383z M71.761,128.774h14.09v-14.08h-14.09V128.774z"/>
</g>
<rect x="112.005" y="67.106" fill="#23286B" width="41.686" height="21.576"/>
<polygon fill="#D62929" points="157.794,39.004 150.97,34.916 155.06,28.096 161.885,32.184 "/>
<rect x="194.651" y="39.882" transform="matrix(0.8579 0.5139 -0.5139 0.8579 49.6418 -95.1972)" fill="#428DFC" width="4.513" height="4.512"/>
<rect x="166.964" y="71.808" transform="matrix(0.8579 0.5139 -0.5139 0.8579 62.1124 -76.4318)" fill="#D6D7D8" width="4.513" height="4.512"/>
<polygon fill="#D6D7D8" points="148.526,70.847 142.787,67.409 146.227,61.674 151.966,65.111 "/>
<g>
	<path fill="#A1C3FC" d="M106.501,212.912c-0.046,0-0.093-0.001-0.139-0.004c-0.239-0.015-0.422-0.221-0.406-0.462
		c0.015-0.239,0.216-0.435,0.462-0.406c1.341,0.07,4.588-1.735,6.305-2.9c3.738-2.544,5.188-4.524,7.398-8.826
		c2.245-4.371,2.663-9.38,1.121-13.398c-0.086-0.224,0.026-0.477,0.25-0.562c0.227-0.086,0.479,0.027,0.562,0.25
		c1.63,4.245,1.196,9.519-1.159,14.107c-2.285,4.446-3.788,6.497-7.683,9.144C113.167,209.89,108.699,212.912,106.501,212.912z"/>
</g>
<g>
	<path fill="#151A4F" d="M12.037,145.297C5.4,145.297,0,139.901,0,133.268s5.4-12.03,12.037-12.03s12.037,5.397,12.037,12.03
		C24.073,139.9,18.673,145.297,12.037,145.297z M12.037,122.108c-6.156,0-11.166,5.006-11.166,11.159
		c0,6.152,5.009,11.159,11.166,11.159s11.166-5.006,11.166-11.159C23.202,127.114,18.193,122.108,12.037,122.108z"/>
</g>
<rect x="142.262" y="136.455" fill="#428DFC" width="12.181" height="12.173"/>
<path id="texture_16_" fill="#FFFFFF" d="M132.958,234.554c0.187-0.1,0.278-0.293,0.176-0.48l0,0c-0.1-0.187-0.293-0.278-0.48-0.176
	l0,0c-0.187,0.1-0.278,0.293-0.176,0.48l0,0C132.578,234.563,132.771,234.654,132.958,234.554L132.958,234.554z M161.858,213.783
	c0.193,0.09,0.38-0.011,0.47-0.204s-0.011-0.38-0.204-0.47l0,0c-0.193-0.09-0.38,0.011-0.47,0.204
	C161.469,213.51,161.665,213.694,161.858,213.783L161.858,213.783L161.858,213.783z M153.22,210.984
	c0.193,0.09,0.38-0.011,0.47-0.204s-0.011-0.38-0.204-0.47l0,0c-0.193-0.09-0.38,0.011-0.47,0.204l0,0
	C152.925,210.612,153.027,210.894,153.22,210.984L153.22,210.984z M148.95,228.306c0.09-0.193,0.085-0.383-0.016-0.57
	c-0.193-0.09-0.383-0.085-0.57,0.016c-0.09,0.193-0.085,0.383,0.014,0.476C148.576,228.507,148.766,228.502,148.95,228.306z
	 M142.031,222.323c0.09-0.193,0.085-0.383-0.016-0.57c-0.193-0.09-0.383-0.085-0.57,0.016c-0.09,0.193-0.085,0.383,0.014,0.476
	C141.655,222.523,141.941,222.516,142.031,222.323L142.031,222.323z M159.922,195.589c0.19-0.005,0.375-0.201,0.369-0.391
	c-0.005-0.19-0.201-0.375-0.391-0.369l0,0c-0.19,0.005-0.375,0.201-0.369,0.391l0,0C159.536,195.41,159.732,195.594,159.922,195.589
	z M150.81,196.224c0.19-0.005,0.375-0.201,0.369-0.391c-0.005-0.19-0.201-0.375-0.391-0.369c-0.19,0.005-0.375,0.201-0.369,0.391
	l0,0C150.424,196.045,150.619,196.229,150.81,196.224L150.81,196.224L150.81,196.224z M142.952,234.843
	c0.093-0.097,0.179-0.386-0.014-0.476c-0.097-0.093-0.386-0.179-0.476,0.014c-0.093,0.097-0.179,0.386,0.014,0.476l0,0
	C142.578,235.044,142.768,235.038,142.952,234.843L142.952,234.843z M137.273,229.014c0.093-0.097,0.179-0.386-0.014-0.476
	c-0.097-0.093-0.29-0.182-0.476,0.014c-0.093,0.097-0.182,0.29,0.014,0.476l0,0C136.99,229.117,137.18,229.111,137.273,229.014
	L137.273,229.014L137.273,229.014z M156.441,203.765c0.19-0.005,0.377-0.105,0.372-0.295s-0.103-0.283-0.295-0.372l0,0
	c-0.19,0.005-0.377,0.105-0.372,0.295l0,0C156.151,203.583,156.251,203.771,156.441,203.765L156.441,203.765z M148.353,203.612
	c0.19-0.005,0.377-0.105,0.372-0.295c-0.005-0.19-0.103-0.283-0.295-0.372l0,0c-0.19,0.005-0.377,0.105-0.372,0.295l0,0
	C148.063,203.43,148.163,203.617,148.353,203.612L148.353,203.612z M148.614,219.668c0.193,0.09,0.38-0.011,0.47-0.204
	c0.09-0.193-0.011-0.38-0.204-0.47c-0.193-0.09-0.38,0.011-0.47,0.204C148.32,219.39,148.421,219.577,148.614,219.668
	L148.614,219.668z M151.196,237.178c0.193,0.09,0.38-0.011,0.47-0.204s-0.011-0.38-0.204-0.47c-0.193-0.09-0.38,0.011-0.47,0.204
	C150.904,236.902,151.004,237.089,151.196,237.178L151.196,237.178z M142.627,233.426c0.193,0.09,0.38-0.011,0.47-0.204
	c0.09-0.193-0.011-0.38-0.204-0.47s-0.38,0.011-0.47,0.204C142.334,233.15,142.434,233.337,142.627,233.426L142.627,233.426z
	 M133.965,229.773c0.193,0.09,0.38-0.011,0.47-0.204c0.09-0.193-0.011-0.38-0.204-0.47s-0.38,0.011-0.47,0.204
	C133.768,229.493,133.868,229.68,133.965,229.773z M152.089,197.804c0.187-0.1,0.278-0.293,0.176-0.48
	c-0.1-0.187-0.293-0.278-0.48-0.176c-0.187,0.1-0.278,0.293-0.176,0.48C151.615,197.817,151.902,197.904,152.089,197.804
	L152.089,197.804z M123.336,237.389c0.196,0.185,0.386,0.179,0.57-0.016 M151.139,218.171c0.19-0.005,0.375-0.201,0.369-0.391
	c-0.005-0.19-0.201-0.375-0.391-0.369c-0.19,0.005-0.375,0.201-0.369,0.391l0,0C150.753,217.991,150.949,218.177,151.139,218.171
	L151.139,218.171L151.139,218.171z M152.646,224.402c0.19-0.005,0.375-0.201,0.369-0.391c-0.005-0.19-0.201-0.375-0.391-0.369
	c-0.19,0.006-0.377,0.105-0.369,0.391C152.26,224.223,152.456,224.407,152.646,224.402L152.646,224.402z M143.311,223.903
	c0.19-0.005,0.375-0.201,0.369-0.391c-0.005-0.19-0.105-0.377-0.391-0.369c-0.19,0.005-0.375,0.201-0.465,0.394
	C142.925,223.724,143.121,223.908,143.311,223.903L143.311,223.903z M134.382,237.84c0.193,0.09,0.38-0.011,0.47-0.204l0,0
	c0.09-0.193-0.011-0.38-0.206-0.565c-0.193-0.09-0.38,0.011-0.565,0.206C134.089,237.562,134.189,237.75,134.382,237.84
	L134.382,237.84z M132.67,234.466c0.19-0.005,0.283-0.103,0.375-0.201c-0.005-0.19-0.103-0.283-0.201-0.375
	c-0.19,0.005-0.283,0.103-0.375,0.201l0,0C132.474,234.282,132.576,234.469,132.67,234.466L132.67,234.466L132.67,234.466z"/>
</svg>